<svg xmlns="http://www.w3.org/2000/svg" version="1.1" id="Layer_1" x="0px" y="0px" width="1049.4px" height="319.5px" viewBox="0 0 1049.4 319.5" xml:space="preserve"><style>.s0{stop-color:#55A8C9;}</style><style type="text/css">
	.st0{fill:#2F3232;}
	.st1{fill:#2F3232;stroke:#FFFFFF;stroke-width:6;stroke-linecap:round;stroke-miterlimit:10;}
	.st2{fill:#FFFFFF;}
	.st3{fill:none;stroke:url(#SVGID_1_);stroke-width:8;stroke-linecap:round;stroke-miterlimit:10;}
	.st4{fill:url(#SVGID_2_);}
	.st5{fill:none;stroke:#E17946;stroke-width:8;stroke-linecap:round;stroke-miterlimit:10;}
	.st6{fill:none;stroke:#76C0C2;stroke-width:8;stroke-linecap:round;stroke-miterlimit:10;}
	.st7{fill:none;stroke:#A272A9;stroke-width:8;stroke-linecap:round;stroke-miterlimit:10;}
	.st8{fill:#2F3232;stroke:#F5D5C2;stroke-width:6.7549;stroke-linecap:round;stroke-miterlimit:10;}
	.st9{fill:#2F3232;stroke:#E07E4F;stroke-width:6.7549;stroke-linecap:round;stroke-miterlimit:10;}
	.st10{fill:#2F3232;stroke:#76C0C2;stroke-width:6.7549;stroke-linecap:round;stroke-miterlimit:10;}
	.st11{fill:#2F3232;stroke:#A272A9;stroke-width:6.7549;stroke-linecap:round;stroke-miterlimit:10;}
	.st12{fill:#2F3232;stroke:#76C0C2;stroke-width:6;stroke-linecap:round;stroke-miterlimit:10;}
	.st13{fill:#2F3232;stroke:#A272A9;stroke-width:6;stroke-linecap:round;stroke-miterlimit:10;}
	.st14{fill:#2F3232;stroke:#E17946;stroke-width:6;stroke-linecap:round;stroke-miterlimit:10;}
	.st15{fill:#E17946;}
	.st16{fill:#A272A9;}
	.st17{fill:#76C0C2;}
	.st18{fill:#898989;}
	.st19{fill:url(#SVGID_3_);}
	.st20{fill:#55A8C9;}
	.st21{display:none;}
	.st22{display:inline;}
	.st23{fill:none;stroke:url(#SVGID_4_);stroke-width:8;stroke-linecap:round;stroke-miterlimit:10;}
	.st24{fill:url(#SVGID_5_);}
	.st25{fill:#A477AA;}
</style><path class="st18" d="M111.5 174.8c-1.9 0-3.6-0.3-5.3-0.9 -6.5 20.9-26 36.1-48.9 36.1C29 210 6 187 6 158.8c0-28.2 23-51.2 51.2-51.2 22.6 0 41.9 14.8 48.6 35.2 1.7-0.6 3.6-1 5.6-1 0.1 0 0.3 0 0.4 0 -7.3-23.3-29-40.2-54.6-40.2C25.7 101.6 0 127.2 0 158.8 0 190.4 25.7 216 57.2 216c26 0 48-17.4 55-41.3C111.9 174.8 111.7 174.8 111.5 174.8z"/><path class="st18" d="M121.3 158.3c0 4.7-3.2 8.6-7.6 9.6 -0.7 0.2-1.5 0.3-2.3 0.3 -1.3 0-2.6-0.3-3.7-0.7 -3.6-1.5-6.2-5-6.2-9.2 0-4.1 2.5-7.6 6-9.1 1.2-0.5 2.5-0.8 3.9-0.8 0.7 0 1.4 0.1 2.1 0.2C118 149.6 121.3 153.5 121.3 158.3z"/><linearGradient id="SVGID_1_" gradientUnits="userSpaceOnUse" x1="107.4498" y1="158.8066" x2="1054.4231" y2="158.8066"><stop offset="0" stop-color="#898989"/><stop offset="8.083546e-02" stop-color="#55A8C9"/><stop offset="0.1028" stop-color="#55A8C9"/><stop offset="0.2362" stop-color="#55A8C9"/><stop offset="0.3768" stop-color="#6DB7C5"/><stop offset="0.4909" stop-color="#7CC1C3"/><stop offset="0.7511" stop-color="#A477AA"/></linearGradient><path d="M1034.4 162.8H111.4c-2.2 0-4-1.8-4-4s1.8-4 4-4h922.9c2.2 0 4 1.8 4 4S1036.6 162.8 1034.4 162.8z" fill="url(#SVGID_1_)"/><path class="st2" d="M199.8 158.8c0 1.2-0.4 2.4-1 3.3v0c-1.1 1.6-2.9 2.6-4.9 2.6 -1 0-2-0.3-2.8-0.7 -1.8-1-3.1-3-3.1-5.2 0-3.3 2.7-6 5.9-6C197.2 152.9 199.8 155.5 199.8 158.8z"/><path class="st2" d="M863 158.8c0 2.8-2 5.2-4.6 5.8 -0.4 0.1-0.9 0.2-1.3 0.2 -2.8 0-5.2-2-5.8-4.6 -0.1-0.4-0.2-0.9-0.2-1.3 0-3.3 2.7-6 5.9-6C860.3 152.9 863 155.5 863 158.8z"/><path class="st16" d="M857 146.1c-7 0-12.7 5.7-12.7 12.7 0 4 1.9 7.6 4.8 9.9l-14.2 57.8c-2.1 8.8-10 14.9-19 14.9h-33.2c-2-18.9-18-33.6-37.4-33.6 -19.4 0-35.4 14.7-37.4 33.6h-33.2c-9 0-16.8-6.1-19-14.9L639 157.8c-0.5-2.1-2.7-3.5-4.8-2.9 -2.1 0.5-3.4 2.7-2.9 4.8l16.9 68.7c3 12.3 14 20.9 26.7 20.9H708c2 18.9 18 33.6 37.4 33.6 19.4 0 35.4-14.7 37.4-33.6H816c12.7 0 23.7-8.6 26.7-20.9l14-56.9c0.1 0 0.2 0 0.3 0 7 0 12.7-5.7 12.7-12.7S864 146.1 857 146.1zM776.8 249.3c-2 15.5-15.3 27.6-31.3 27.6 -16.1 0-29.4-12-31.4-27.6 -0.2-1.3-0.2-2.6-0.2-4 0-1.4 0.1-2.7 0.2-4 2-15.5 15.3-27.6 31.4-27.6 16.1 0 29.4 12.1 31.3 27.6 0.2 1.3 0.2 2.6 0.2 4C777 246.7 776.9 248 776.8 249.3zM851.3 160.1c-0.1-0.4-0.2-0.9-0.2-1.3 0-3.3 2.7-6 5.9-6 3.3 0 5.9 2.7 5.9 6 0 2.8-2 5.2-4.6 5.8 -0.4 0.1-0.9 0.2-1.3 0.2C854.2 164.7 851.9 162.8 851.3 160.1z"/><path class="st2" d="M641 158.8c0 3.3-2.7 5.9-5.9 5.9 -3.3 0-5.9-2.7-5.9-5.9 0-1.2 0.4-2.4 1-3.3 1.1-1.6 2.9-2.6 4.9-2.6 1 0 2 0.3 2.8 0.7C639.8 154.6 641 156.5 641 158.8z"/><path class="st17" d="M636.1 146.2l-14-57c-3-12.3-14-20.9-26.7-20.9H561c-2.1-18.8-18-33.5-37.4-33.5 -19.3 0-35.3 14.7-37.4 33.5h-32c-12.7 0-23.7 8.6-26.7 20.9l-14 57 -1.8 7.4c0.8-0.5 1.8-0.7 2.8-0.7 2 0 3.9 1.1 4.9 2.6l1.8-7.4 14-57c2.2-8.8 10-14.8 19-14.8h32c2 18.9 18 33.7 37.4 33.7 19.4 0 35.5-14.8 37.4-33.7h34.3c9 0 16.8 6.1 19 14.8l14 57c-3.6 2.2-5.9 6.2-5.9 10.7 0 7 5.7 12.7 12.7 12.7s12.7-5.7 12.7-12.7C647.8 152.1 642.6 146.7 636.1 146.2zM555 76.3c-1.9 15.6-15.2 27.7-31.4 27.7 -16.1 0-29.4-12.1-31.4-27.7 -0.1-1.3-0.2-2.6-0.2-3.9 0-1.4 0.1-2.8 0.3-4.1 2-15.5 15.3-27.5 31.3-27.5 16 0 29.3 12 31.3 27.5 0.2 1.3 0.3 2.7 0.3 4.1C555.2 73.7 555.2 75 555 76.3zM635.1 164.7c-3.3 0-5.9-2.7-5.9-5.9 0-1.2 0.4-2.4 1-3.3 1.1-1.6 2.9-2.6 4.9-2.6 1 0 2 0.3 2.8 0.7 1.8 1 3.1 3 3.1 5.2C641 162.1 638.4 164.7 635.1 164.7z"/><path class="st20" d="M421.2 148.1c-2-1.2-4.3-2-6.8-2 -0.3 0-0.7 0-1 0.1 -6.5 0.5-11.7 6-11.7 12.7 0 4.5 2.4 8.5 5.9 10.7l-14 56.9c-2.2 8.8-10 14.9-19 14.9h-33.2c-2-18.9-18-33.6-37.4-33.6 -19.4 0-35.4 14.7-37.4 33.6h-33.2c-9 0-16.8-6.1-19-14.9l-14-56.9c3.6-2.2 5.9-6.2 5.9-10.7 0-7-5.7-12.7-12.7-12.7s-12.7 5.7-12.7 12.7c0 6.7 5.2 12.1 11.7 12.6l14 57c3 12.3 14 20.9 26.7 20.9h33.2c2 18.9 18 33.6 37.4 33.6 19.4 0 35.4-14.7 37.4-33.6h33.2c12.7 0 23.7-8.6 26.7-20.9l14-57c6.5-0.5 11.7-6 11.7-12.6C427.2 154.3 424.8 150.3 421.2 148.1zM198.8 162.1L198.8 162.1c-1.1 1.6-2.9 2.6-4.9 2.6 -1 0-2-0.3-2.8-0.7 -1.8-1-3.1-3-3.1-5.2 0-3.3 2.7-6 5.9-6 3.3 0 5.9 2.7 5.9 6C199.8 160 199.5 161.2 198.8 162.1zM335.5 249.3c-2 15.5-15.3 27.6-31.3 27.6 -16.1 0-29.4-12-31.4-27.6 -0.2-1.3-0.2-2.6-0.2-4 0-1.4 0.1-2.7 0.2-4 2-15.5 15.3-27.6 31.4-27.6 16.1 0 29.4 12.1 31.3 27.6 0.2 1.3 0.2 2.6 0.2 4C335.8 246.7 335.7 248 335.5 249.3zM417.3 164c-0.8 0.5-1.8 0.7-2.8 0.7 -2.1 0-3.9-1.1-4.9-2.6 -0.6-0.9-1-2.1-1-3.3 0-2.3 1.3-4.2 3.1-5.2 0.8-0.5 1.8-0.7 2.8-0.7 2 0 3.9 1.1 4.9 2.6 0.6 0.9 1 2.1 1 3.3C420.4 161.1 419.2 163 417.3 164z"/><path class="st17" d="M429.2-0.3c2.1 0 3.7 0.4 4.7 0.9v4.2H432l-0.3-2.5c-0.9-0.2-1.6-0.3-2.5-0.3 -3.4 0-5.1 2.8-5.1 6.7s1.7 6.7 5.1 6.7c0.9 0 1.6-0.1 2.5-0.3l0.3-2.5h1.9v4.2c-1.1 0.5-2.6 0.9-4.7 0.9 -5.3 0-7.6-4.1-7.6-9S424-0.3 429.2-0.3z"/><path class="st17" d="M446.9 17.7c-5.8 0-6.6-4.4-6.6-9s0.8-9 6.6-9c5.8 0 6.6 4.4 6.6 9S452.8 17.7 446.9 17.7zM446.9 2c-3.6 0-4.1 3.1-4.1 6.7 0 3.6 0.5 6.7 4.1 6.7s4.1-3.1 4.1-6.7C451 5.1 450.5 2 446.9 2z"/><path class="st17" d="M461.3 2.2l-2.1-0.2V0h6.6v1.9l-2.1 0.2v12.9h5.4l0.2-2.1h1.9v4.4h-12.1v-1.9l2.1-0.2V2.2z"/><path class="st17" d="M478.5 2.2l-2.1-0.2V0h6.6v1.9l-2.1 0.2v12.9h5.4l0.2-2.1h1.9v4.4h-12.1v-1.9l2.1-0.2V2.2z"/><path class="st17" d="M492.6 15.4l2.4-0.3 4.2-12.9 -2.4-0.3V0h5.7l5 15.2 2.4 0.3v1.9h-7.5v-1.9l2.4-0.3 -0.9-2.9h-5.6l-0.9 2.9 2.4 0.3v1.9h-7.5V15.4zM499.2 10.1h4.2l-2.1-7L499.2 10.1z"/><path class="st17" d="M527.8 4.8c0 1.3-0.6 2.6-1.7 3.5 1.6 0.8 2.2 2.4 2.2 4.1 0 2.8-1.5 5-6 5h-7.9v-1.9l2.1-0.2v-13l-2.1-0.2V0h7.8C526.4 0 527.8 2.2 527.8 4.8zM522.3 2.3H519v4.9h3.5c2.1 0 2.7-1.3 2.7-2.5C525.2 3.5 524.7 2.3 522.3 2.3zM519 15.1h3.5c2.7 0 3.3-1.4 3.3-2.7 0-1.9-0.9-2.8-3.2-2.8H519V15.1z"/><path class="st17" d="M541 17.7c-5.8 0-6.6-4.4-6.6-9s0.8-9 6.6-9c5.8 0 6.6 4.4 6.6 9S546.8 17.7 541 17.7zM541 2c-3.6 0-4.1 3.1-4.1 6.7 0 3.6 0.5 6.7 4.1 6.7s4.1-3.1 4.1-6.7C545.1 5.1 544.5 2 541 2z"/><path class="st17" d="M566.8 5c0 2.5-0.9 4.2-3.6 4.8 0.2 0.2 0.4 0.5 0.6 0.8l2 3.5c0.6 1 1.4 1.3 2.2 1.3 0.7 0 1.2-0.1 1.6-0.2v2.2c-0.4 0.1-1.2 0.2-1.7 0.2 -2.1 0-3.4-0.7-4.7-3l-2.2-3.6c-0.5-0.8-0.7-0.9-1.5-1h-1.9v5.1l2.1 0.2v1.9h-6.6v-1.9l2.1-0.2v-13l-2.1-0.2V0h7.7C565.4 0 566.8 1.9 566.8 5zM557.7 7.8h3.5c2.5 0 2.9-1.2 2.9-2.8 0-1.5-0.4-2.7-2.9-2.7h-3.5V7.8z"/><path class="st17" d="M572.6 15.4l2.4-0.3 4.2-12.9 -2.4-0.3V0h5.7l5 15.2 2.4 0.3v1.9h-7.5v-1.9l2.4-0.3 -0.9-2.9h-5.6l-0.9 2.9 2.4 0.3v1.9h-7.5V15.4zM579.1 10.1h4.2l-2.1-7L579.1 10.1z"/><path class="st17" d="M607.4 0v4.4h-1.9l-0.2-2.1h-3.3v12.9l2.1 0.2v1.9h-6.6v-1.9l2.1-0.2V2.3h-3.3l-0.2 2.1H594V0H607.4z"/><path class="st17" d="M617.1 2.3v4.9h3.6l0.2-2.1h1.9v6.5h-1.9l-0.2-2.1h-3.6v5.5h5.8l0.2-2.1h1.9v4.4h-12.5v-1.9l2.1-0.2v-13l-2.1-0.2V0h12.5v4.4h-1.9l-0.2-2.1H617.1z"/><path class="st20" d="M277.3 301.3c2.1 0 3.7 0.4 4.7 0.9v4.2h-1.9l-0.3-2.5c-0.9-0.2-1.6-0.3-2.5-0.3 -3.4 0-5.1 2.8-5.1 6.7s1.7 6.7 5.1 6.7c0.9 0 1.6-0.1 2.5-0.3l0.3-2.5h1.9v4.2c-1.1 0.5-2.6 0.9-4.7 0.9 -5.3 0-7.6-4.1-7.6-9S272.1 301.3 277.3 301.3z"/><path class="st20" d="M295 319.2c-5.8 0-6.6-4.4-6.6-9s0.8-9 6.6-9c5.8 0 6.6 4.4 6.6 9S300.9 319.2 295 319.2zM295 303.6c-3.6 0-4.1 3.1-4.1 6.7 0 3.6 0.5 6.7 4.1 6.7 3.6 0 4.1-3.1 4.1-6.7C299.1 306.7 298.6 303.6 295 303.6z"/><path class="st20" d="M321.7 310.3c0 4.9-1.6 8.7-7.4 8.7h-7V317l2.1-0.2v-13l-2.1-0.2v-1.9h7C320.1 301.6 321.7 305.3 321.7 310.3zM311.8 316.6h2.6c3.6 0 4.7-2.7 4.7-6.4s-1.1-6.4-4.7-6.4h-2.6V316.6z"/><path class="st20" d="M331.9 303.9v4.9h3.6l0.2-2.1h1.9v6.5h-1.9l-0.2-2.1h-3.6v5.5h5.8l0.2-2.1h1.9v4.4h-12.5V317l2.1-0.2v-13l-2.1-0.2v-1.9h12.5v4.4H338l-0.2-2.1H331.9z"/><path class="st16" d="M715.3 306.4c0 1.9 1.3 2.1 3.6 2.4 3.5 0.4 5.5 1.6 5.5 5 0 2.5-1.3 5.5-6.6 5.5 -1.6 0-3.8-0.5-5.1-1v-4h1.9l0.3 2.4c0.8 0.2 1.6 0.3 2.9 0.3 3.1 0 4-1.4 4-3.2 0-1.9-0.9-2.3-3.4-2.6h0c-4.2-0.5-5.7-1.8-5.7-4.7 0-2.1 1-5.1 6-5.1 2.1 0 3.7 0.4 4.7 0.9v4.1h-1.9l-0.3-2.5c-0.9-0.2-1.6-0.3-2.5-0.3C715.9 303.6 715.3 304.9 715.3 306.4z"/><path class="st16" d="M734.8 308.8h7.3v-5l-2.1-0.2v-1.9h6.6v1.9l-2.1 0.2v13l2.1 0.2v1.9H740V317l2.1-0.2v-5.7h-7.3v5.7l2.1 0.2v1.9h-6.6V317l2.1-0.2v-13l-2.1-0.2v-1.9h6.6v1.9l-2.1 0.2V308.8z"/><path class="st16" d="M756.9 316.8l2.1 0.2v1.9h-6.6V317l2.1-0.2v-13l-2.1-0.2v-1.9h6.6v1.9l-2.1 0.2V316.8z"/><path class="st16" d="M778.3 306.9c0 2.8-1.5 5.4-6 5.4h-3.1v4.4l2.1 0.2v1.9h-6.6V317l2.1-0.2v-13l-2.1-0.2v-1.9h7.6C776.8 301.6 778.3 304.1 778.3 306.9zM769.3 310h3.1c2.8 0 3.3-1.7 3.3-3.1s-0.5-3.1-3.3-3.1h-3.1V310z"/><g id="Glyph_17_"><path class="st18" d="M57.2 137.5c-12 0-21.7 9.7-21.7 21.7 0 10.1 6.9 18.6 16.3 21v-5.7c-5.4 1.2-6.5-2.5-6.5-2.5 -0.9-2.2-2.1-2.8-2.1-2.8 -1.7-1.2 0.1-1.2 0.1-1.2 1.9 0.1 2.9 2 2.9 2 1.8 3.1 4.8 2 5.7 1.5 0.3-1.3 1-2.1 1.7-2.6 -4.9-0.5-10.1-2.3-10.1-10.6 0-2.3 0.8-4.3 2.2-5.8 -0.2-0.5-1-2.7 0.2-5.7 0 0 1.8-0.6 5.9 2.2 1.7-0.5 3.6-0.7 5.4-0.7 1.8 0 3.7 0.2 5.4 0.7 4.1-2.8 5.9-2.2 5.9-2.2 1.2 3 0.4 5.1 0.2 5.7 1.4 1.5 2.2 3.4 2.2 5.8 0 8.4-5.2 10.1-10 10.6 0.9 0.6 1.8 1.7 1.8 3.9v7.4c9.4-2.4 16.3-10.9 16.3-21C79 147.2 69.2 137.5 57.2 137.5z"/></g><path class="st20" d="M301.6 236.2l-9.2 9.2 9.2 9.2 -3.9 3.9 -11.8-13.1 11.8-13.1L301.6 236.2zM322.6 245.3l-11.8 13.1 -3.9-3.9 9.2-9.2 -9.2-9.2 3.9-3.9L322.6 245.3z"/><path class="st17" d="M517.8 58.1c0.8 0.8 1.3 1.9 1.3 3.2 0 0.8-0.2 1.6-0.6 2.3s-1 1.2-1.6 1.6v14.7c0.7 0.4 1.2 0.9 1.6 1.6s0.6 1.4 0.6 2.3c0 1.3-0.5 2.4-1.3 3.2s-1.9 1.3-3.2 1.3c-1.3 0-2.4-0.5-3.2-1.3s-1.3-1.9-1.3-3.2c0-0.8 0.2-1.6 0.6-2.3s1-1.2 1.6-1.6V65.1c-0.7-0.4-1.2-0.9-1.6-1.6s-0.6-1.4-0.6-2.3c0-1.3 0.5-2.4 1.3-3.2s1.9-1.3 3.2-1.3C515.9 56.8 517 57.2 517.8 58.1zM516.2 62.9c0.4-0.4 0.6-0.9 0.6-1.6s-0.2-1.2-0.6-1.6 -0.9-0.6-1.6-0.6 -1.2 0.2-1.6 0.6 -0.6 0.9-0.6 1.6 0.2 1.2 0.6 1.6 0.9 0.6 1.6 0.7C515.3 63.5 515.8 63.3 516.2 62.9zM516.2 85.4c0.4-0.4 0.6-0.9 0.6-1.6s-0.2-1.2-0.6-1.6 -0.9-0.6-1.6-0.6 -1.2 0.2-1.6 0.6 -0.6 0.9-0.6 1.6 0.2 1.2 0.6 1.6 0.9 0.6 1.6 0.7C515.3 86 515.8 85.8 516.2 85.4zM536.5 81.5c0.4 0.7 0.6 1.4 0.6 2.3 0 1.3-0.5 2.4-1.3 3.2s-1.9 1.3-3.2 1.3c-1.3 0-2.4-0.5-3.2-1.3s-1.3-1.9-1.3-3.2c0-0.8 0.2-1.6 0.6-2.3s1-1.2 1.6-1.6V65.8c0-0.6-0.3-1.1-0.7-1.5s-1-0.7-1.5-0.7h-2.2V68l-6.8-6.8 6.8-6.8V59c0 0 0 0 0.3 0h2c1.8 0.1 3.3 0.8 4.6 2.1s2 2.9 2.1 4.6v8.3c0 3.5 0 5.4 0 5.8C535.6 80.3 536.1 80.8 536.5 81.5zM534.2 85.4c0.4-0.4 0.6-0.9 0.6-1.6s-0.2-1.2-0.6-1.6 -0.9-0.6-1.6-0.6 -1.2 0.2-1.6 0.6 -0.6 0.9-0.6 1.6 0.2 1.2 0.6 1.6 0.9 0.6 1.6 0.7C533.3 86 533.8 85.8 534.2 85.4z"/><path class="st16" d="M751.4 235c0.4 0.7 0.8 1.4 1.4 2 0.6 0.6 1.2 1.1 2 1.4 0.7 0.4 1.5 0.6 2.3 0.8 -0.7 1.3-1.6 2.6-2.5 3.9 -1 1.3-2.1 2.6-3.3 3.8 -1.6 1.5-3.1 2.8-4.5 3.8l-1.2 6.3 -7.4 7.4 -0.2-6.6 4.7-4.7c-1.7 0.8-3.1 1.3-4.1 1.5 -1 0.2-1.6 0.3-1.6 0.3l-2.1-2.1c0 0 0.1-0.5 0.3-1.5s0.7-2.4 1.5-4.1l-4.6 4.6 -6.6-0.2 7.4-7.4 6.3-1.2c1-1.4 2.3-2.9 3.9-4.5 1.2-1.2 2.5-2.3 3.8-3.3s2.6-1.8 3.9-2.5C750.8 233.5 751 234.3 751.4 235zM759 229c1.6-0.5 2.4-0.7 2.4-0.7 0 0-0.2 0.8-0.7 2.4s-1.3 3.5-2.4 6c-1.6-0.2-2.8-0.7-3.7-1.6s-1.4-2.1-1.6-3.7C755.5 230.3 757.4 229.5 759 229z"/><circle class="st2" cx="414.5" cy="158.8" r="5.9"/><polygon class="st25" points="1032.1 168.8 1049.4 158.8 1032.1 148.8 "/></svg>